PathFileType	4	(X/Y/Z)	./resultDataOpenSim/trcMotMarkerGrf/sub10/qtm-04-02.trc
DataRate	CameraRate	NumFrames	NumMarkers	Units	OrigDataRate	OrigDataStartFrame	OrigNumFrames
250.000000	250.000000	7	24	m	250.000000	330	527
Frame#	Time	L.Toe.Tip			R.Toe.Tip			L.Ankle.Lat			R.Ankle.Lat			L.Ankle.Med			R.Ankle.Med			L.Heel			R.Heel			L.Knee.Lat			R.Knee.Lat			L.Knee.Med			R.Knee.Med			L.Thigh.Upper			R.Thigh.Upper			L.ASIS			R.ASIS			V.Sacral			L.Acromium			R.Acromium			C7			L.Elbow			R.Elbow			L.Wrist.Lat			R.Wrist.Lat
		X1	Y1	Z1	X2	Y2	Z2	X3	Y3	Z3	X4	Y4	Z4	X5	Y5	Z5	X6	Y6	Z6	X7	Y7	Z7	X8	Y8	Z8	X9	Y9	Z9	X10	Y10	Z10	X11	Y11	Z11	X12	Y12	Z12	X13	Y13	Z13	X14	Y14	Z14	X15	Y15	Z15	X16	Y16	Z16	X17	Y17	Z17	X18	Y18	Z18	X19	Y19	Z19	X20	Y20	Z20	X21	Y21	Z21	X22	Y22	Z22	X23	Y23	Z23	X24	Y24	Z24

330	1.316	-0.0024105177	-0.032599189	-0.11718843	0.81483102	0.077325562	-0.032212572	-0.10500328	0.051848148	-0.15972475	0.67948026	0.055311685	0.016643567	-0.087601993	0.073815128	-0.080612024	0.68532594	0.086327885	-0.066982835	-0.17252885	0.06067783	-0.11898589	0.63441342	0.019498349	-0.025980784	0.096488483	0.38299964	-0.20277077	0.57644927	0.44036904	0.04621145	0.10877725	0.35484061	-0.080856545	0.57275023	0.44660799	-0.081395857	0.23489485	0.74768775	-0.25984103	0.36939641	0.78932737	0.1075127	0.32633544	0.84390868	-0.2293286	0.40263439	0.87050974	0.0065864057	0.18013247	0.86698136	-0.041743634	0.3402042	1.3334591	-0.24344718	0.34005087	1.3190951	0.07533093	0.25486264	1.3542241	-0.089916335	0.36311804	0.98337788	-0.31137746	0.15622982	1.0253046	0.12102549	0.60540772	0.96594744	-0.24792388	0.191091	0.80817133	0.22694267
331	1.32	-0.0017676028	-0.032530587	-0.11727732	0.81687556	0.072577077	-0.032848297	-0.10245911	0.053961255	-0.16056572	0.68107094	0.054689812	0.016171393	-0.084527925	0.075593622	-0.08153277	0.68725902	0.085270139	-0.067626318	-0.16955692	0.063939642	-0.11973166	0.63478886	0.019992819	-0.026067455	0.10168764	0.38354312	-0.20299763	0.58214248	0.43970679	0.044916169	0.11443349	0.35485364	-0.081461073	0.57852287	0.44628411	-0.082371133	0.24128839	0.74765665	-0.25944837	0.37641398	0.7897141	0.10759842	0.3331223	0.84360586	-0.22923981	0.4094221	0.87071786	0.00640651	0.18656593	0.86706324	-0.042258774	0.34676548	1.3339058	-0.2429653	0.34617196	1.3190258	0.075751471	0.2611698	1.3539675	-0.089511139	0.36974128	0.98370932	-0.31062649	0.16225291	1.0251667	0.12055429	0.61182832	0.96605539	-0.24670103	0.19649379	0.80816446	0.2269123
332	1.324	-0.0010605812	-0.032479884	-0.1173899	0.8187689	0.068603306	-0.033260788	-0.099702029	0.056110574	-0.16149494	0.68265066	0.05448637	0.015882595	-0.081249892	0.0773787	-0.082552276	0.68917592	0.084565472	-0.068112402	-0.16636498	0.067276536	-0.12054734	0.63528531	0.020662348	-0.02606244	0.1070928	0.38411024	-0.20332286	0.587829	0.43919955	0.043583212	0.12028615	0.35486904	-0.082090541	0.5843161	0.44605995	-0.083383813	0.24786319	0.74762387	-0.25906103	0.38345489	0.7901784	0.10774921	0.34007823	0.84332899	-0.22907164	0.41619765	0.87104989	0.0063312645	0.19326372	0.86756422	-0.04223534	0.35340732	1.3344581	-0.24243644	0.35230994	1.3190334	0.076214409	0.26746103	1.3538128	-0.088962563	0.37624871	0.98412405	-0.30983989	0.16840354	1.0250659	0.12003919	0.61814904	0.96604874	-0.24561354	0.2020278	0.80819655	0.22684629
333	1.328	-0.00027750275	-0.032442823	-0.11753156	0.82043566	0.065809193	-0.033434783	-0.096722991	0.058289202	-0.16251532	0.6841149	0.054523519	0.015734146	-0.077771934	0.079168769	-0.083656966	0.69093853	0.084102481	-0.068464793	-0.162927	0.070687083	-0.12143895	0.6358914	0.02134461	-0.025999643	0.11274726	0.3846795	-0.20371853	0.59366416	0.43899398	0.042308951	0.12632693	0.354883	-0.08271127	0.59011806	0.44604772	-0.084399046	0.25462078	0.7475851	-0.25869067	0.39050819	0.79074992	0.10795435	0.34719558	0.84308763	-0.22881027	0.42297821	0.87149386	0.0063684453	0.19971599	0.86844977	-0.041894595	0.36013589	1.3351152	-0.24187161	0.35846429	1.3191192	0.076717858	0.27376696	1.3538292	-0.08842211	0.38264277	0.98462591	-0.30902428	0.17465795	1.0250101	0.11950722	0.62436833	0.9659251	-0.24465068	0.2077009	0.80825666	0.22673572
334	1.332	0.00059108184	-0.032417267	-0.11770372	0.82186949	0.064056813	-0.033473474	-0.09352119	0.060490495	-0.16362297	0.68540957	0.054657481	0.015677079	-0.074085696	0.080958329	-0.084833819	0.69246446	0.083808214	-0.068704757	-0.15921796	0.07416584	-0.12239209	0.6365726	0.021973307	-0.025871259	0.11866705	0.3852332	-0.20413928	0.59978587	0.43921382	0.04116107	0.13256248	0.35490792	-0.083305426	0.59591959	0.44636259	-0.0854323	0.26155782	0.7475311	-0.25834477	0.39756587	0.79145696	0.10819851	0.3544532	0.84288323	-0.22845755	0.42976483	0.87202216	0.0065139339	0.20597525	0.86951218	-0.04155289	0.36695247	1.3358668	-0.2412803	0.36463806	1.3192858	0.077257125	0.28011061	1.3540294	-0.087980434	0.38891511	0.98520271	-0.3081904	0.18100751	1.0250075	0.118967	0.63048251	0.96569067	-0.24380364	0.21350246	0.80835001	0.22657856
335	1.336	0.0015546275	-0.032409636	-0.11790738	0.8231201	0.062855354	-0.033492101	-0.090099299	0.0627022	-0.164813	0.68656118	0.054829769	0.015673423	-0.070167718	0.082733902	-0.086083781	0.6937796	0.083648369	-0.068856224	-0.15519719	0.077704972	-0.12338639	0.6372831	0.022554527	-0.025672839	0.12484193	0.38575788	-0.20456229	0.60626907	0.43995108	0.040115681	0.13900058	0.35495163	-0.083870555	0.60169816	0.44708212	-0.086531529	0.26866044	0.74744979	-0.25802556	0.40463013	0.79232362	0.10846876	0.36183028	0.84271313	-0.22802061	0.43654136	0.87261756	0.0067450084	0.21244484	0.87048534	-0.041502477	0.37385566	1.3366957	-0.24066593	0.37083083	1.3195349	0.077825442	0.28651966	1.3543504	-0.087618292	0.39504998	0.98583537	-0.30731927	0.18745031	1.0250638	0.11841911	0.63648287	0.96536047	-0.24307735	0.21941014	0.80848704	0.22637363
336	1.34	0.0026237016	-0.032434649	-0.11814355	0.82424354	0.061707413	-0.033541496	-0.08645228	0.064900786	-0.16608023	0.68761699	0.055022231	0.015696319	-0.065990665	0.084474704	-0.087416349	0.69496853	0.083590873	-0.06894781	-0.15081769	0.081294949	-0.12441082	0.63797503	0.023107974	-0.025425243	0.1312619	0.38624093	-0.20500069	0.61309597	0.4412369	0.039068479	0.14564179	0.3550015	-0.084422433	0.60743178	0.44822378	-0.087748061	0.27590486	0.74732823	-0.25773362	0.41171956	0.7933681	0.10877024	0.36931181	0.84257372	-0.22750643	0.44328807	0.87328595	0.0070263872	0.21929814	0.87127974	-0.041801688	0.38083827	1.3375818	-0.24002911	0.37703602	1.3198661	0.078414814	0.2930234	1.3547006	-0.087264616	0.40103881	0.98652199	-0.30635357	0.19398541	1.0251793	0.11786111	0.64236219	0.96494844	-0.24248055	0.22540419	0.80867108	0.22611751
